<?xml version="1.0" encoding="utf-8"?>
<!-- Generator: Adobe Illustrator 16.0.0, SVG Export Plug-In . SVG Version: 6.00 Build 0)  -->
<!DOCTYPE svg PUBLIC "-//W3C//DTD SVG 1.1//EN" "http://www.w3.org/Graphics/SVG/1.1/DTD/svg11.dtd">
<svg version="1.1" id="Layer_1" xmlns="http://www.w3.org/2000/svg" xmlns:xlink="http://www.w3.org/1999/xlink" x="0px" y="0px"
	 width="1021.821px" height="251.395px" viewBox="0 0 1021.821 251.395" enable-background="new 0 0 1021.821 251.395"
	 xml:space="preserve">
<g>
	<g>
		<path fill-rule="evenodd" clip-rule="evenodd" fill="#111212" d="M944.123,247.745c-0.63-0.207-1.552-0.216-1.845-0.649
			c-3.7-5.484-6.951-1.367-9.819,0.741c-1.921,1.411-3.702,1.976-5.886,1.847c-5.698-0.334-6.896-2.199-3.976-7.18
			c4.339-7.401,2.657-15.089,1.626-22.748c-1.125-8.364-2.673-16.697,0.004-25.037c0.682-2.123-0.588-2.79-2.141-3.71
			c-5.044-2.984-10.527-4.714-16.204-5.79c-3.616-0.686-5.011-2.219-4.367-6.063c3.514-20.991,6.366-41.974,15.66-61.684
			c6.329-13.422,12.163-27.093,18.943-40.324c3.875-7.563,9.837-12.2,18.126-14.063c3.824-0.859,7.375-2.835,11.442-2.771
			c1.223,0.02,2.784-0.553,2.396-1.865c-2.424-8.181,5.357-10.889,8.6-15.909c1.773-2.747,5.004-3.402,8.796-1.675
			c3.674,1.673,6.917,4.038,10.599,5.641c1.643,0.715,2.464,2.16,3.082,4.117c1.523,4.833,0.964,9.754,1.34,14.614
			c0.302,3.911-5.319,8.978-9.27,8.233c-2.598-0.49-3.813,0.479-4.72,2.328c-0.931,1.893-2.69,3.268-0.776,6.197
			c6.271,9.595,10.085,20.123,9.305,31.873c-0.076,1.146-0.275,2.291-0.514,3.415c-1.773,8.339,0.691,11.727,9.395,12.73
			c4.496,0.518,7.386,2.894,8.176,7.326c0.749,4.196,1.4,8.449,1.587,12.699c1.204,27.308,2.223,54.622,3.444,81.929
			c0.141,3.147-0.503,6.584,1.783,9.382c0,1.326,0,2.65,0,3.977c-1.961,0.509-3.896,0.392-5.813-0.232
			c-1.324-3.076-0.023-6.21-0.189-9.321c-0.771-14.498-1.573-28.999-1.971-43.509c-0.129-4.736-1.91-6.105-6.326-5.599
			c-6.882,0.79-13.791,1.673-20.7,1.798c-5.158,0.094-7.046,2.573-7.562,7.11c-0.929,8.184-2.162,16.343-2.796,24.548
			c-0.672,8.698-2.857,17.28-2.072,26.091c-0.267,0.563-0.196,1.044,0.34,1.413c0.089,0.541,0.179,1.081,0.269,1.62
			c-0.617,2.682-2.286,3.785-4.994,3.337c-0.781-0.25-1.752-0.172-2.085-1.201c-0.014-0.394-0.026-0.786-0.039-1.178
			c0.015-0.591,0.03-1.18,0.046-1.77c1.208-3.363-0.81-3.042-2.994-2.678C956.093,246.741,950.176,247.867,944.123,247.745z
			 M977.017,142.911c2.35-2.222,1.591-5.802,3.596-8.216c0.577-0.694,1.958-1.926-0.149-2.575c-1.396-0.43-2.561-0.311-2.69,1.65
			c-0.205,3.101-0.559,6.192-0.842,9.252l0.208,0.027L977.017,142.911z M972.357,172.806c0.001,1.941,0.002,3.882,0.004,5.822
			c-0.481,4.172-0.402,8.327,0.327,12.481c0.144-3.887,1.906-7.566,1.327-11.507c0.488-8.412,2.892-16.741,1.942-25.217
			c-0.405-0.036-0.811-0.073-1.216-0.108c-0.562,3.795-1.122,7.59-1.683,11.386C971.844,167.947,972.097,170.376,972.357,172.806z
			 M977.177,186.551c10.544-1.965,20.557-3.004,30.643-2.971c2.436,0.008,2.92-0.126,2.696-2.737
			c-0.549-6.408-0.626-12.861-0.786-19.298c-0.057-2.238-0.619-3.585-3.139-4.129c-7.404-1.604-14.748-3.48-22.11-5.275
			c-2.076-0.507-3.251-0.35-3.532,2.355C979.847,165.135,978.472,175.746,977.177,186.551z M967.388,184.538
			c-2.508,8.515-4.791,16.936-8.693,24.866c-2.199,4.469-2.649,9.825-3.714,14.817c-1.306,6.127,0.487,9.073,6.412,11.004
			c4.512,1.47,6.861-0.212,6.778-5.019c-0.03-1.794-0.929-3.658-0.642-5.357c1.989-11.782-0.43-23.736,1.511-35.513
			C969.298,187.778,969.486,185.973,967.388,184.538z M1007.783,136.296c-2.352,0.206-3.295,4.744-6.235,1.786
			c-1.719-1.728-3.116-1.606-5.224-1.171c-2.524,0.521-5.233,0.826-7.766-0.468c-3.245-1.658-5.086-0.067-5.827,2.952
			c-0.586,2.38-0.714,4.879-0.964,7.333c-0.165,1.616,1.016,1.689,2.233,1.938c7.582,1.546,15.146,3.181,22.717,4.784
			c1.059,0.224,2.815,0.904,2.382-1.022C1007.884,147.013,1010.392,141.271,1007.783,136.296z M941.153,238.263
			c0.293-0.65,0.587-1.233,0.823-1.839c4.565-11.639,0.964-23.545,1.153-35.327c0.016-1.041-0.572-1.377-1.523-1.447
			c-1.675-0.126-1.833,0.979-1.919,2.209c-0.509,7.274-3.096,14.164-4.071,21.316C934.857,228.753,932.907,235.271,941.153,238.263z
			 M978.355,124.818c0.55,1.541-0.962,3.579,1.47,4.358c1.75,0.561,3.777,1.435,5.294,0.576c2.031-1.149,0.392-3.266,0.186-4.904
			c-0.639-5.076-1.46-10.128-2.261-15.182c-0.138-0.867,0.275-2.239-1.135-2.33c-1.506-0.097-1.768,1.108-1.897,2.356
			C979.479,114.779,978.901,119.861,978.355,124.818z"/>
		<path fill-rule="evenodd" clip-rule="evenodd" fill="#111212" d="M751.442,2.716c2.372,3.256,3.363,7.179,7.895,9.2
			c8.174,3.646,10.656,13.022,6.525,20.578c-0.441,0.809-0.543,1.875-0.57,2.828c-0.234,8.097-3.385,11.283-11.716,11.384
			c1.916,5.021,4.088,9.678,7.442,13.818c2.798,3.453,5.461,7.059,7.783,10.844c3.787,6.173,3.249,10.575-1.984,15.455
			c-1.897,1.77-2.778,3.469-2.471,5.938c1.732,13.864-1.066,28.096,3.068,41.724c1.899,6.261-1.228,11.867-1.262,17.892
			c-0.068,11.549,2.015,23.176,0.085,34.6c-1.474,8.725-1.501,17.394-1.849,26.129c-0.144,3.581,1.222,7.313-2.25,10.962
			c-1.851,1.947,0.491,6.841,2.937,9.201c3.821,3.688,7.319,8.132,13.091,9.128c1.575,0.271,2.279,1.178,2.119,2.771
			c-0.187,1.886-1.563,2.46-3.104,2.597c-4.267,0.378-8.544,0.64-12.817,0.947c-6.698-3.133-14.047-0.614-20.897-2.414
			c-0.682-4.646,1.029-8.561,3.788-12.112c1.145-1.473,1.776-3.11,2.298-4.871c1.188-4.007,1.466-6.597-4.146-7.797
			c-6.123-1.311-12.181-4.29-16.779-8.647c-5.648-5.354-12.219-4.688-18.527-3.726c-3.526,0.539-5.758,4.767-7.764,7.928
			c-3.498,5.517-7.713,11.095-2.791,18.051c0.867,1.223,0.105,2.591-0.824,3.604c-1.205,1.311-2.396,0.482-3.535-0.206
			c-2.898-1.755-5.807-3.988-6.556-7.176c-1.463-6.202-4.838-11.239-7.951-16.584c-3.363-5.776-2.721-6.229,3.966-7.764
			c2.428-0.557,4.892-0.709,7.272-1.291c3.058-0.747,6.946-0.468,6.818-5.624c-0.034-1.369,2.124-2.804,3.297-4.188
			c5.896-6.962,11.155-14.31,14.407-22.946c1.645-4.367,4.517-8.061,7.127-11.861c2.462-3.585,3.829-7.293,2.804-11.8
			c-2.393,0.039-3.95,3.53-6.848,1.831c-3.862-2.265-4.858-5.335-2.054-9.075c3.179-4.237,3.464-8.685,2.763-13.609
			c-1.149-8.057-1.315-16.117,0.153-24.203c0.631-3.471,0.179-6.924-0.456-10.545c-0.829-4.717,0.524-9.82,0.951-14.756
			c0.442-5.105,1.382-10.223,1.233-15.31c-0.216-7.415,2.299-13.171,8.15-17.643c2.621-2.002,4.956-4.382,7.598-6.356
			c3.072-2.295,3.487-5.09,1.879-8.253c-3.201-6.292-3.623-12.259,1.543-17.787c0.664-0.711,1.375-1.296,0.573-2.489
			c-2.569-3.818,0.252-6.047,2.625-8.375C746.803,2.716,749.122,2.716,751.442,2.716z"/>
		<path fill-rule="evenodd" clip-rule="evenodd" fill="#111212" d="M622.073,242.315c-3.839-11.098-2.898-22.607-2.8-34.021
			c0.036-4.283,0.376-8.626,1.166-12.83c3.585-19.065,1.474-37.866-2.396-56.579c-0.798-3.856-2.332-7.563-3.581-11.32
			c-0.29-0.876-0.118-2.36-1.359-2.38c-5.591-0.089-3.662-3.306-2.977-6.394c3.738-16.814,3.645-33.739,1.986-50.832
			c-1.042-10.736,1.654-20.624,11.09-27.48c1.822-1.324,3.613-2.542,0.294-4.623c-2.81-1.76-2.606-5.519-4.015-8.273
			c-1.986-3.883-3.165-7.855,0.594-11.772c5.081-5.294,9.935-10.612,18.367-9.156c4.193,0.724,8.907,5.747,10.794,9.498
			c2.339,4.652,0.151,10.371,4.037,14.417c0.561,0.583,0.569,1.495,0.063,1.74c-3.077,1.487-2.023,4.558-2.575,6.879
			c-0.724,3.046-1.344,5.072-5.299,4.74c-2.521-0.212-4.028,0.931-1.816,4.186c4.09,6.021,8.015,12.09,13.04,17.43
			c3.041,3.23,4.326,7.546,4.205,11.905c-0.326,11.797,1.165,23.449,2.273,35.137c0.297,3.141,0.841,6.685-0.819,9.26
			c-3.584,5.558-3.416,10.753-0.682,16.486c1.712,3.589,0.361,7.026-2.276,9.787c-1.643,1.721-1.945,1.479-2.563-1.06
			c-0.606-2.491-3.387-0.761-4.846-3.705c0,10.896-0.307,20.33,0.081,29.736c0.433,10.496-1.619,20.759-2.212,31.15
			c-0.533,9.373,1.536,18.426,2.594,27.608c0.188,1.624,0.735,2.827,2.572,3.07c3.072,0.406,4.968,2.317,4.877,5.284
			c-0.107,3.565-3.545,1.95-5.421,2.812c-0.442,0.203-0.945,0.274-1.421,0.407c-5.395,0.908-10.762-1.157-16.027-0.484
			C631.905,243.596,627.005,243.885,622.073,242.315z"/>
		<path fill-rule="evenodd" clip-rule="evenodd" fill="#111212" d="M515.397,239.41c-0.278-14.733,6.19-27.68,11.793-40.584
			c4.501-10.367,6.111-21.179,8.44-31.926c1.462-6.747-2.511-12.456-4.721-18.439c-1.144-3.096-2.822-5.997-3.897-9.11
			c-1.903-5.51-2.956-10.965-1.085-16.953c2.583-8.27,0.825-12.955-6.413-17.298c-7.382-4.428-12.824-10.885-19.011-16.573
			c-1.995-1.835-2.334-3.692-0.447-6.02c7.18-8.86,14.175-17.871,21.354-26.731c3.053-3.767,7.512-5.257,11.988-6.556
			c2.641-0.766,3.346-1.962,1.069-4.012c-8.273-7.447-5.303-17.88,0.775-25.343c4.956-6.083,17.043-7.169,24.212-2.577
			c5.922,3.793,7,6.449,5.867,13.158c-0.51,3.018-1.827,6.114,0.03,9.196c0.539,0.893,0.497,2.377-0.488,2.576
			c-2.867,0.58-2.788,3.189-3.364,4.94c-1.172,3.56-2.774,5.626-6.931,3.773c1.443,7.014,3.525,13.016,7.72,18.351
			c2.838,3.608,2.008,7.628-1.902,10.354c-1.635,1.139-2.322,2.143-1.514,4c2.905,6.673,3.618,13.931,3.443,20.906
			c-0.219,8.767,1.47,17.095,3.212,25.464c2.976,14.279-0.988,27.505-5.445,40.72c-1.635,4.844-2.972,9.784-5.173,14.443
			c-0.75,1.587-1.208,3.551-1.07,5.284c1.029,12.855,0.758,25.799,2.742,38.601c0.334,2.151,0.929,2.756,2.804,3.049
			c2.863,0.446,6.602,0.324,6.216,4.661c-0.375,4.222-4.029,3.537-6.926,3.731c-0.66,0.044-1.317,0.127-1.977,0.192
			c-6.527,0.109-13.047-0.773-19.586-0.097c-1.617,0.167-3.673,0.284-4.463-1.4c-1.394-2.973-3.683-1.262-4.652-0.536
			C523.835,241.766,519.694,240.929,515.397,239.41z M519.429,81.988c-2.427,0.98-4.385,2.19-6.249,3.888
			c4.87,3.705,7.414,9.018,12.051,12.861C523.316,93.211,521.401,87.685,519.429,81.988z"/>
		<path fill-rule="evenodd" clip-rule="evenodd" fill="#111212" d="M431.091,234.314c3.148-10.912,0.618-21.553-1.368-32.267
			c-1.126-6.076-0.956-12.146,1.501-18.046c2.393-5.743,4.194-18.392,3.784-25.853c-1.607,4.925-3.775,2.962-6.586,2.339
			c-7.064-1.563-6.106-6.84-6.064-11.499c0.088-9.91,2.463-19.485,7.355-28.022c4.986-8.702,4.703-17.155,1.589-26.141
			c-2.737-7.903-4.036-15.959-2.161-24.368c1.007-4.517,2.563-8.395,6.496-11.203c2.914-2.08,4.536-4.279,0.084-7.013
			c-3.482-2.138-4.558-5.85-3.864-9.996c0.574-3.426,1.5-6.671-0.494-10.266c-2.624-4.729,0.421-10.178,5.694-11.316
			c0.475-0.103,1.01,0.082,1.484-0.023c9.094-1.997,9.155-2.032,13.113,5.954c0.57,1.152,0.919,1.724,2.261,2.031
			c12.359,2.832,9.825,4.71,9.948,16.271c0.006,0.621-0.778,1.468-0.561,1.836c2.88,4.873-1.752,7.776-2.779,11.624
			c-1.671,6.263-5.536,3.885-9.779,2.626c1.425,5.792,2.729,10.857,6.059,15.27c3.642,4.826,7.525,9.765,1.687,15.718
			c-0.898,0.916-0.226,2.23-0.248,3.363c-0.221,11.142,2.042,21.569,8.703,30.78c1.576,2.178,2.194,4.813,2.727,7.398
			c0.329,1.6,0.996,4.091,0.231,4.796c-4.629,4.276-1.105,8.085,0.191,12.07c1.156,3.551,2.815,7.353-3.495,7.553
			c-1.848,0.06-1.271,1.539-1.078,2.629c0.547,3.086,0.867,6.241,1.751,9.229c1.194,4.038,1.093,7.798-1.034,11.457
			c-1.323,2.273-1.351,4.793-1.054,7.245c1.173,9.673,2.393,19.332,4.419,28.887c2.141,10.096,10.647,12.079,18.401,15.123
			c0.903,0.355,1.948,0.34,2.92,0.53c1.375,0.271,2.68,0.854,2.784,2.389c0.13,1.912-1.545,1.821-2.801,1.985
			c-3.276,0.426-6.561,0.785-9.842,1.172c-3.084-0.074-6.168-0.149-9.252-0.22c-4.304-0.097-8.728,1.348-12.857-1
			c0.144-0.289,0.14-0.576-0.009-0.862c-2.591-1.988-5.287-1.008-7.973-0.279c-0.6,0.103-1.2,0.206-1.8,0.308
			c-1.453-1.624-3.356-0.663-5.044-0.828c-4.347-0.426-8.705,1.264-13.062-0.004l-0.048-0.191
			C431.044,235.106,431.067,234.711,431.091,234.314z M449.678,176.852c-1.846,1.273-1.931,3.077-2.328,4.589
			c-2.654,10.134-2.648,20.627-3.889,30.949c-1.098,9.129,2.354,13.61,11.74,16.733c1.454,0.484,3.365,1.642,4.661,0.521
			c1.41-1.219,0.349-3.188-0.199-4.649c-2.722-7.261-5.507-14.5-8.449-21.674c-2.472-6.024-3.164-12.081-1.392-18.41
			C450.536,182.355,450.871,179.718,449.678,176.852z"/>
		<path fill-rule="evenodd" clip-rule="evenodd" fill="#111212" d="M384.82,53.7c2.078,0.671,1.141,1.947,0.12,2.315
			c-6.992,2.524-8.985,9.066-11.198,14.856c-2.121,5.552-4.651,10.684-8.615,15.572c3.319,0.926,6.177,0.036,8.413-1.18
			c6.175-3.357,12.526-5.969,15.057-14.238c2.325-7.593,4.506-15.001,4.911-22.916c0.042-0.825,0.077-1.79,1.191-1.752
			c0.927,0.032,1.414,0.827,1.533,1.685c0.157,1.134,0.176,2.286,0.286,3.881c3.358-1.955,4.117-5.485,6.008-8.377
			c3.526,5.576,1.512,9.913-1.854,14.083c-1.482,1.836-2.479,3.895-2.311,6.356c0.967,14.146-5.176,24.824-17.021,31.765
			c-8.347,4.89-7.704,11.61-8.547,19.919c-1.77,17.438,9.272,30.578,12.25,46.195c0.153,0.805,0.387,1.591,0.6,2.451
			c-0.522,0.21-0.949,0.476-1.406,0.55c-9.229,1.484-9.231,1.48-6.657,10.706c0.221,0.792,0.408,1.614,0.77,2.344
			c5.497,11.078,2.299,21.131-3.602,30.87c-0.428,0.707-0.947,1.363-1.333,2.091c-7.557,14.25-5.899,12.007,6.084,14.604
			c1.706,0.37,3.454,0.794,3.662,2.723c0.256,2.379-1.715,2.731-3.536,3.286c-3.55,1.081-7.229,0.637-10.811,1.208
			c-3.261,1.466-6.785,1.473-10.242,1.851c-0.902-0.748-1.804-1.496-2.705-2.243c-1.35-2.283-3.612-2.701-5.971-2.925
			c-1.867-2.552-4.146-4.688-6.638-6.613c-2.909-2.245-3.408-4.681-0.702-7.499c3.451-3.596,4.869-8.182,5.761-12.896
			c1.118-5.906,3.598-11.003,8.195-14.903c2.684-2.277,2.936-4.244-0.159-6.232c-3.396-2.184-5.946-5.249-8.603-8.197
			c-2.867-3.186-5.514-6.474-10.423-6.697c-3.171-0.145-4.979-3.038-7.314-4.817c-0.916-0.697-0.888-1.654-0.275-2.631
			c4.988-7.938,4.424-18.139,10.083-25.67c4.5-5.99,1.976-12.188,1.913-18.371c-0.024-2.287-1.546-1.905-3.064-2.061
			c-6.011-0.62-6.6-1.882-4.96-7.575c0.966-3.355,0.18-6.869-0.382-10.333c-1.92-11.829-1.013-23.218,7.207-32.722
			c6.653-7.692,16.067-5.922,20.085,3.431c2.149,5.005,3.083,5.125,6.363,0.77c2.905-3.857,4.215-7.809,0.779-12.114
			c-0.668-0.836-1.732-1.67-1.006-3.234c1.38-0.097,2.307,0.66,3.039,1.789c1.481,2.289,2.546,1.85,3.935-0.266
			c1.973-3.005,6.972-2.695,10.08,0.412c-0.128,0.373-0.463,0.979-0.349,1.079C383.97,54.483,384.469,54.261,384.82,53.7z
			 M362.363,201.75c-8.077,9.187-9.478,15.777-4.944,21.442C360.804,216.343,361.149,208.933,362.363,201.75z"/>
		<path fill-rule="evenodd" clip-rule="evenodd" fill="#111212" d="M234.37,232.409c-4.073-4.291-8.203-8.529-12.202-12.89
			c-2.874-3.136-2.685-6.752,0.519-9.113c5.647-4.161,9.47-10.146,15.104-14.238c1.471-1.068,2.958-2.135,4.534-3.034
			c5.201-2.968,8.685-8.374,6.746-13.685c-4.269-11.692,1.203-22.031,3.221-32.876c0.343-1.845,2.483-4.077,0.791-5.383
			c-1.743-1.346-4.715-0.859-6.516,0.658c-5.206,4.389-11.643,4.697-17.826,5.856c-2.194,0.412-3.36-0.629-3.245-3.089
			c0.176-3.71,2.107-6.85,4.92-8.342c2.781-1.474,4.879-3.843,7.597-5.062c6.229-2.796,10.631-6.996,14.436-12.791
			c4.095-6.238,6.574-12.715,7.692-19.879c0.668-4.28,1.488-8.456,3.816-12.207c4.53-7.301,12.04-9.513,19.745-5.769
			c2.076,1.008,4.163,1.994,6.223,3.033c4.664,2.354,8.777,9.652,3.733,14.923c-1.544,1.614-2.842,3.29-1.253,6.073
			c1.097,1.922-1.455,3.588-2.377,5.366c-1.167,2.249-1.879,5.068-3.682,6.563c-2.046,1.698-4.227-2.16-7.073-1.157
			c3.873,3.81,5.519,8.473,5.771,13.669c0.204,4.2,2.333,5.047,6.272,4.523c5.605-0.746,10.44-3.236,15.43-5.507
			c3.747-1.706,6.135-0.107,5.145,3.818c-0.599,2.374,0.155,6.499-5.619,5.308c-2.739-0.565-6.432,3.407-9.667,5.364
			c-1.84,1.113-3.678,2.673-5.883,2.262c-5.086-0.952-6.16,2.065-6.483,6.018c-0.41,5.007-3.445,9.271-3.908,14.3
			c-0.29,3.144,0.134,5.763,2.358,8.175c2.689,2.918,5.142,6.058,7.619,9.163c2.958,3.71,4.906,7.8,4.725,12.723
			c-0.146,3.96,1.933,7.287,3.4,10.77c0.833,1.976,2.406,3.85,2.572,5.858c0.565,6.833,4.506,7.795,10.133,6.608
			c1.444-0.305,2.963-0.29,4.451-0.34c1.732-0.056,3.96-0.53,4.5,1.677c0.518,2.12-1.357,3.268-3.097,3.912
			c-4.484,1.667-9.043,3.15-12.531,6.665c-0.575,0.58-1.081,1.229-1.619,1.848c-4.672,3.817-5.762,3.732-8.834-0.696
			c-0.617-2.368-0.257-5.126-2.251-6.959c-3.044-2.798-4.533-6.375-5.893-10.153c-3.73-10.368-10.035-18.972-18.247-26.394
			c-6.338,10.081-13.291,18.412-24.821,22.824c-10.563,4.043-10.553,6.902-3.38,16.456c1.888,2.518,2.869,4.989-0.78,6.908
			C237.214,233.582,235.792,232.996,234.37,232.409z"/>
		<path fill-rule="evenodd" clip-rule="evenodd" fill="#111212" d="M121.577,140.521c4.775-0.937,9.377-1.931,10.355-8.002
			c0.249-1.542,1.546-3.156,3.712-3.022c-0.294,2.748,5.617,3.4,2.392,7.174c-1.423,1.664-0.885,2.298,1.136,3.31
			c1.979,0.99,5.064,2.829,0.624,5.533c-1.91,1.164-2.92,3.873-4.207,5.961c-0.691,1.123-1.125,2.238-2.66,2.632
			c-4.791,1.229-6.163,4.38-5.82,9.252c0.523,7.438-0.056,14.873-3.128,21.868c-0.396,0.903-0.814,2.522-1.295,2.55
			c-6.101,0.355-2.922,4.818-2.382,6.712c2.513,8.818,0.352,18.153,3.332,26.875c0.374,1.093-0.307,2.56-0.546,3.844
			c-1.062,5.699,0.654,8.864,6.177,11.518c2.495,1.198,4.752,2.526,0.808,4.841c-6.417-0.698-12.982,1.003-19.307-1.188
			c-1.357-8.365-4.866-16.223-5.423-25.209c-2.322,1.44-2.97,3.317-3.517,5.083c-0.953,3.079-2.47,5.921-4.67,8.08
			c-2.743,2.691-3.786,4.466,0.796,5.907c1.113,0.352,1.34,1.385,1.231,2.438c-0.173,1.671-1.517,1.572-2.623,1.51
			c-5.13-0.293-9.971-1.968-14.861-3.345c-1.89-0.531-1.815-2.415-1.362-3.757c1.888-5.594,2.891-11.93,6.263-16.477
			c5.369-7.237,5.782-14.608,4.677-22.83c-0.502-3.737,0.439-7.482,1.372-11.21c0.92-3.684,2.807-7.366,1.265-11.43
			c-0.382-1.006-0.491-2.641,0.07-3.396c4.535-6.119-0.141-9.77-3.337-14.051c-4.232-5.669-3.034-11.351,3.321-14.963
			c2.988-1.699,2.852-2.606,0.755-4.971c-1.7-1.917-7.01-4.77,0.173-6.844c0.258-0.075,0.207-1.22,0.3-1.867
			c1.262-8.785,6.309-12.454,14.955-10.876c4.783,0.873,9.459,1.953,12.076,6.704c1.283,2.328,1.085,4.777,1.248,7.374
			c0.309,4.948-1.922,9.083-2.448,13.658c-0.224,0.161-0.448,0.322-0.672,0.483C120.764,140.433,121.17,140.477,121.577,140.521z"/>
		<path fill-rule="evenodd" clip-rule="evenodd" fill="#111212" d="M170.903,236.318c-3.2-5.154-2.829-11.142-2.4-16.563
			c0.481-6.087-1.456-12.55,2.124-18.45c0.746-1.23-0.466-3.817-1.083-5.677c-3.738-11.277-5.746-22.547-3.043-34.539
			c0.915-4.059,0.583-8.463,2.453-12.425c0.789-1.671,0.077-3.204-0.537-4.744c-2.806-7.027-2.469-13.877,1.323-20.459
			c0.611-1.061,0.959-1.579,0.079-2.899c-3.617-5.426-2.615-20.927,1.405-25.722c6.771-8.076,20.89-7.33,26.537,1.602
			c1.362,2.155,3.159,4.975-0.14,7.354c-0.966,0.696-1.167,1.624-0.362,2.504c2.673,2.924,0.953,6.045,0.592,9.158
			c-0.454,3.91-3.272,3.438-5.908,3.527c-1.087,0.037-2.47-0.385-3.005,1.053c-0.424,1.141-0.353,2.258,0.916,2.987
			c8.026,4.604,7.717,12.856,8.699,20.414c0.749,5.768,0.489,5.785,6.363,4.478c1.125-0.249,2.302-0.501,3.436-0.431
			c2.238,0.136,5.48-0.078,4.964,3.076c-0.2,1.224,0.084,5.732-4.212,4.237c0.368,1.487,2.5,0.715,2.174,2.637
			c-0.294,0.102-0.719,0.41-1.081,0.349c-13.704-2.316-11.201-3.399-12.193,8.89c-0.77,9.537-3.119,18.944-2.435,28.611
			c0.089,1.262-0.092,2.918-0.842,3.8c-4.349,5.106-4.117,11.153-4.275,17.284c-0.062,2.406,0.25,3.554,2.637,4.12
			c2.071,0.492,4.058,1.356,6.064,2.104c1.19,0.443,1.898,1.318,1.851,2.637c-0.054,1.506-1.339,1.905-2.388,2.023
			c-2.616,0.295-5.264,0.316-7.899,0.448c-2.905-2.222-7.122,0.776-9.85-2.63c1.224,6.125,7.139,6.353,10.886,9.181l0.031,0.038
			c0.438,3.563-1.947,3.83-4.564,4.064C181.62,238.858,176.307,237.267,170.903,236.318z"/>
		<path fill-rule="evenodd" clip-rule="evenodd" fill="#111212" d="M6.769,234.295c-4.325-2.107-4.676-5.131-2.708-9.3
			c3.073-6.509,4.723-13.913,12.036-17.444c1.448-0.7,0.784-1.439,0.3-2.315c-1.949-3.523-2.522-7.476-3.492-11.304
			c-0.458-1.809-0.796-3.899,0.313-5.305c3.862-4.892,4.104-11.106,6.202-16.611c1.954-5.13,1.732-11.205,5.988-15.343
			c4.286-4.167,5.333-8.682,4.08-14.509c-0.998-4.64,1.602-8.358,5.959-10.32c5.753-2.591,11.07-0.958,15.725,2.672
			c3.532,2.754,4.819,6.743,3.628,11.114c-1.224,4.493-0.958,9.717-6.267,12.458c7.17,4.098,13.75,7.793,20.253,11.616
			c1.735,1.02,2.498,2.721,1.37,4.662c-0.911,1.566-1.853,3.258-4.249,1.966c-3.613-1.945-7.76-2.633-11.42-4.161
			c-4.553-1.9-4.1,1.969-5.256,3.407c-2.365,2.943,1.526,2.282,2.485,3.127c1.546,1.359,3.661,1.127,5.666,0.501
			c2.158-0.675,3.857,0.143,3.78,2.455c-0.067,2.035,0.536,4.9-3.038,5.122c-2.278,0.141-4.656,1.058-6.793,0.635
			c-6.102-1.207-8.749,3.365-12.088,6.719c-1.104,1.106-0.484,2.88-0.016,4.286c2.109,6.325,1.407,12.207-1.96,18.033
			c-2.091,3.62-0.067,12.166,3.064,15.093c1.071,1.001,1.673,2.082,1.212,3.495c-0.789,2.423-2.979,2.246-4.914,2.501
			c-3.082,0.726-5.392-1.353-8.038-2.211c-1.142-2.228-3.687-1.387-5.397-2.441c-0.913-0.562-1.629-2.344-3.201-0.948
			c-1.579,1.401-0.854,2.844-0.141,4.304c-0.292,2.76-2.359,2.709-4.362,2.743C11.71,239.054,9.235,236.682,6.769,234.295z"/>
		<path fill-rule="evenodd" clip-rule="evenodd" fill="#111212" d="M890.663,251.284c-1.361,0.044-2.723,0.088-4.082,0.132
			c-2.266-2.626-0.044-5.39-0.251-8.076c-1.173-15.17-2.389-30.337-3.519-45.511c-0.152-2.043-0.631-2.615-2.677-1.672
			c-4.087,1.885-8.565,2.476-12.938,3.248c-11.247,1.986-16.338,8.265-15.527,19.538c0.107,1.486,0.113,2.981,0.25,4.465
			c0.886,9.584,5.732,15.888,14.124,18.369c2.442,0.723,4.907,1.369,4.634,4.736c-0.299,3.69-3.286,2.362-5.299,2.84
			c-0.48,0.112-0.984,0.126-1.478,0.187c-0.865-0.48-1.699-0.544-2.472,0.192c-0.422,0.03-0.845,0.062-1.268,0.093
			c-3.255-2.121-6.264-2.916-10.267-0.925c-3.26,1.622-7.342,1.465-10.805-0.774c0.053-2.579-0.635-4.313-3.164-5.968
			c-6.02-3.938-10.396-9.889-16.304-14.136c-3.151-2.265-2.22-6.708,2.217-8.048c7.76-2.343,11.07-8.15,14.235-14.601
			c2.449-4.99,1.73-6.56-3.695-6.711c-2.139-0.058-4.429-0.283-6.396,0.352c-4.59,1.484-6.136,0.416-5.945-4.634
			c0.683-18.218-0.567-36.372-2.501-54.489c-0.277-2.593,0.559-5.305,0.283-7.898c-1.101-10.368,2.605-20.014,3.831-29.962
			c0.764-6.205,1.446-12.847,1.403-19.317c-0.088-13.602,6.727-22.652,18.478-28.58c1.263-0.638,2.942-0.827,3.474-2.525
			c-0.108-0.289-0.16-0.774-0.336-0.824c-2.615-0.747-6.233-0.597-6.482-4.167c-0.231-3.346,3.017-4.4,5.619-5.435
			c2.769-1.101,4.102-2.382,3.41-5.912c-1.186-6.063,0.514-8.302,6.227-10.544c5.745-2.254,11.582-3.789,17.859-3.216
			c2.768,0.252,4.018,1.307,4.343,4.227c0.908,8.204,1.044,8.169,9.134,9.772c1.405,0.279,3.481,0.479,3.564,2.012
			c0.1,1.806-2.092,1.537-3.398,1.985c-3.688,1.267-8.922,8.137-9.161,12.01c-0.18,2.888-5.815,9.79-9.102,10.701
			c2.375,2.509,2.422,5.524,2.258,8.592c-0.335,6.28-0.274,12.42,1.802,18.583c1.792,5.318-0.721,10.787-1.249,16.182
			c-0.64,6.532,4.574,16.914,10.479,19.506c9.631,4.229,11.773,12.871,5.145,21.036c-1.79,2.205-2.433,4.676-2.228,7.392
			c2.241,29.517,4.567,59.026,6.688,88.553C889.798,245.174,893.658,247.847,890.663,251.284z M880.159,171.423
			c0.789-3.95,0.439-7.821,0.008-11.697c-0.74-6.643-1.375-13.255,4.541-18.286c0.569-0.485,1.563-1.3,0.38-2.385
			c-2.776-2.544-10.421-2.713-13.064,0.319c-0.704-4.304,2.145-9.287-3.315-11.774c0.158,2.406-2.586,4.034-1.632,7.091
			C870.944,147.081,875.052,159.382,880.159,171.423z M840.48,234.594c0.77-3.945,0.68-7.752-0.856-11.63
			C834.528,227.3,839.569,230.871,840.48,234.594z"/>
		<path fill-rule="evenodd" clip-rule="evenodd" fill="#FBFBFB" d="M977.017,142.911l0.122,0.14c0,0-0.208-0.027-0.212-0.01
			C976.922,143.059,977.017,142.911,977.017,142.911z"/>
		<path fill-rule="evenodd" clip-rule="evenodd" fill="#FBFBFB" d="M384.82,53.7c-0.351,0.562-0.85,0.783-1.362,0.328
			c-0.114-0.101,0.221-0.707,0.349-1.079C384.145,53.199,384.482,53.449,384.82,53.7z"/>
		<path fill-rule="evenodd" clip-rule="evenodd" fill="#FBFBFB" d="M121.577,140.521c-0.407-0.043-0.813-0.087-1.22-0.131
			c0.224-0.161,0.449-0.322,0.672-0.483C121.239,140.087,121.422,140.292,121.577,140.521z"/>
	</g>
</g>
</svg>
