<svg width="101" height="94" viewBox="0 0 101 94" fill="none" xmlns="http://www.w3.org/2000/svg">
<path d="M3.64994 38C2.97794 38 2.43794 37.82 2.02994 37.46C1.64594 37.076 1.45394 36.572 1.45394 35.948C1.45394 35.372 1.59794 34.904 1.88594 34.544L17.9419 15.608L17.6179 15.356L16.2499 16.904H5.73794C4.60994 16.904 3.74594 16.556 3.14594 15.86C2.56994 15.164 2.28194 14.144 2.28194 12.8H21.4699C22.1899 12.8 22.7299 12.98 23.0899 13.34C23.4739 13.676 23.6659 14.18 23.6659 14.852C23.6659 15.428 23.5219 15.896 23.2339 16.256L7.32194 35.156L7.64594 35.444L9.01394 33.896H20.3539C21.4579 33.896 22.2979 34.244 22.8739 34.94C23.4739 35.636 23.7739 36.656 23.7739 38H3.64994ZM35.5952 38.324C33.6272 38.324 31.8272 37.94 30.1952 37.172C28.5632 36.38 27.2672 35.312 26.3072 33.968C25.3712 32.624 24.9032 31.16 24.9032 29.576V21.188C24.9032 19.604 25.3712 18.152 26.3072 16.832C27.2672 15.488 28.5632 14.432 30.1952 13.664C31.8272 12.872 33.6272 12.476 35.5952 12.476C37.5632 12.476 39.3632 12.872 40.9952 13.664C42.6512 14.432 43.9472 15.488 44.8832 16.832C45.8432 18.152 46.3232 19.604 46.3232 21.188V29.576C46.3232 31.16 45.8432 32.624 44.8832 33.968C43.9472 35.312 42.6512 36.38 40.9952 37.172C39.3632 37.94 37.5632 38.324 35.5952 38.324ZM35.5952 34.112C37.3952 34.112 38.8352 33.692 39.9152 32.852C40.9952 31.988 41.5352 30.872 41.5352 29.504V21.296C41.5352 19.904 40.9952 18.788 39.9152 17.948C38.8352 17.084 37.3952 16.652 35.5952 16.652C33.8192 16.652 32.3912 17.084 31.3112 17.948C30.2312 18.788 29.6912 19.904 29.6912 21.296V29.504C29.6912 30.872 30.2312 31.988 31.3112 32.852C32.3912 33.692 33.8192 34.112 35.5952 34.112ZM59.7475 38.324C57.7795 38.324 55.9795 37.94 54.3475 37.172C52.7155 36.38 51.4195 35.312 50.4595 33.968C49.5235 32.624 49.0555 31.16 49.0555 29.576V21.188C49.0555 19.604 49.5235 18.152 50.4595 16.832C51.4195 15.488 52.7155 14.432 54.3475 13.664C55.9795 12.872 57.7795 12.476 59.7475 12.476C61.7155 12.476 63.5155 12.872 65.1475 13.664C66.8035 14.432 68.0995 15.488 69.0355 16.832C69.9955 18.152 70.4755 19.604 70.4755 21.188V29.576C70.4755 31.16 69.9955 32.624 69.0355 33.968C68.0995 35.312 66.8035 36.38 65.1475 37.172C63.5155 37.94 61.7155 38.324 59.7475 38.324ZM59.7475 34.112C61.5475 34.112 62.9875 33.692 64.0675 32.852C65.1475 31.988 65.6875 30.872 65.6875 29.504V21.296C65.6875 19.904 65.1475 18.788 64.0675 17.948C62.9875 17.084 61.5475 16.652 59.7475 16.652C57.9715 16.652 56.5435 17.084 55.4635 17.948C54.3835 18.788 53.8435 19.904 53.8435 21.296V29.504C53.8435 30.872 54.3835 31.988 55.4635 32.852C56.5435 33.692 57.9715 34.112 59.7475 34.112ZM73.9638 16.076C73.9638 14.972 74.3958 14.096 75.2598 13.448C76.1238 12.776 77.2998 12.44 78.7878 12.44L86.3478 31.448L85.5198 33.716L85.8798 33.86L93.9798 12.476C95.4438 12.476 96.6078 12.812 97.4718 13.484C98.3598 14.132 98.8038 15.008 98.8038 16.112V38.324C95.6598 38.324 94.0878 37.148 94.0878 34.796V23.276L95.3118 19.964L94.9158 19.82L88.3278 37.028C88.1598 37.412 87.8958 37.724 87.5358 37.964C87.1998 38.204 86.8158 38.324 86.3838 38.324C85.9518 38.324 85.5558 38.204 85.1958 37.964C84.8598 37.724 84.6078 37.4 84.4398 36.992L77.8518 19.784L77.4558 19.928L78.6438 23.24V34.796C78.6438 37.148 77.0838 38.324 73.9638 38.324V16.076ZM25.8569 85.324C23.8889 85.324 22.0889 84.94 20.4569 84.172C18.8249 83.38 17.5289 82.312 16.5689 80.968C15.6329 79.624 15.1649 78.16 15.1649 76.576V68.188C15.1649 66.604 15.6329 65.152 16.5689 63.832C17.5289 62.488 18.8249 61.432 20.4569 60.664C22.0889 59.872 23.8889 59.476 25.8569 59.476C27.8249 59.476 29.6249 59.872 31.2569 60.664C32.9129 61.432 34.2089 62.488 35.1449 63.832C36.1049 65.152 36.5849 66.604 36.5849 68.188V76.576C36.5849 78.16 36.1049 79.624 35.1449 80.968C34.2089 82.312 32.9129 83.38 31.2569 84.172C29.6249 84.94 27.8249 85.324 25.8569 85.324ZM25.8569 81.112C27.6569 81.112 29.0969 80.692 30.1769 79.852C31.2569 78.988 31.7969 77.872 31.7969 76.504V68.296C31.7969 66.904 31.2569 65.788 30.1769 64.948C29.0969 64.084 27.6569 63.652 25.8569 63.652C24.0809 63.652 22.6529 64.084 21.5729 64.948C20.4929 65.788 19.9529 66.904 19.9529 68.296V76.504C19.9529 77.872 20.4929 78.988 21.5729 79.852C22.6529 80.692 24.0809 81.112 25.8569 81.112ZM50.5132 85.324C48.4972 85.324 46.6732 84.916 45.0412 84.1C43.4332 83.284 42.1732 82.156 41.2612 80.716C40.3492 79.276 39.8932 77.644 39.8932 75.82V63.04C39.8932 61.888 40.3012 61.012 41.1172 60.412C41.9332 59.788 43.1332 59.476 44.7172 59.476V75.82C44.7172 77.428 45.2452 78.712 46.3012 79.672C47.3572 80.632 48.7612 81.112 50.5132 81.112C52.2652 81.112 53.6692 80.632 54.7252 79.672C55.7812 78.712 56.3092 77.428 56.3092 75.82V63.04C56.3092 61.864 56.7172 60.976 57.5332 60.376C58.3492 59.776 59.5492 59.476 61.1332 59.476V75.82C61.1332 77.644 60.6772 79.276 59.7652 80.716C58.8532 82.156 57.5812 83.284 55.9492 84.1C54.3412 84.916 52.5292 85.324 50.5132 85.324ZM72.7348 63.976H64.0588C64.0588 61.192 65.3188 59.8 67.8388 59.8H86.2348C86.2348 62.584 84.9628 63.976 82.4188 63.976H77.5588V81.76C77.5588 82.912 77.1508 83.8 76.3348 84.424C75.5188 85.024 74.3188 85.324 72.7348 85.324V63.976Z" fill="white"/>
</svg>
