<svg version="1.1" xmlns="http://www.w3.org/2000/svg" xmlns:xlink="http://www.w3.org/1999/xlink" viewBox="420 0 1080 1080.001" xml:space="preserve">
	<g>
		<g>
			<path d="M443.068,1056.006c14.446,14.958,38.281,15.373,53.239,0.927l375.35-375.351c138.883,113.558,338.541,113.558,477.425,0 c161.239-131.837,185.076-369.425,53.238-530.664C1270.482-10.321,1032.896-34.158,871.657,97.68 c-161.239,131.837-185.076,369.423-53.239,530.663l-375.35,375.35C428.977,1018.282,428.977,1041.414,443.068,1056.006z M808.555,390.233c0-166.355,134.857-301.213,301.213-301.213c166.354,0,301.211,134.858,301.211,301.213 c-0.185,166.278-134.934,301.024-301.211,301.212C943.412,691.445,808.555,556.588,808.555,390.233z"/>
		</g>
	</g>
	<g>
		<g>
			<path d="M937.815,390.235c0,15.829,12.83,28.659,28.659,28.659h114.63v114.632c0,15.828,12.833,28.66,28.66,28.66 c15.829,0,28.66-12.832,28.66-28.66V418.894h114.631c15.828,0,28.658-12.83,28.658-28.659s-12.83-28.659-28.658-28.659h-114.629 V246.944c0-15.828-12.831-28.658-28.658-28.658s-28.66,12.831-28.66,28.658v114.631H966.478 C950.649,361.576,937.815,374.407,937.815,390.235z"/>
		</g>
	</g>
</svg>