<?xml version="1.0" encoding="utf-8"?>
<!-- Generator: Adobe Illustrator 16.0.0, SVG Export Plug-In . SVG Version: 6.00 Build 0)  -->
<!DOCTYPE svg PUBLIC "-//W3C//DTD SVG 1.1//EN" "http://www.w3.org/Graphics/SVG/1.1/DTD/svg11.dtd">
<svg version="1.1" id="Layer_1" xmlns="http://www.w3.org/2000/svg" xmlns:xlink="http://www.w3.org/1999/xlink" x="0px" y="0px"
	 width="1021.821px" height="251.395px" viewBox="0 0 1021.821 251.395" enable-background="new 0 0 1021.821 251.395"
	 xml:space="preserve">
<g>
	<g>
		<path fill="#FFFFFF" d="M944.124,247.745c-0.631-0.207-1.553-0.217-1.846-0.649c-3.699-5.484-6.951-1.367-9.818,0.741
			c-1.922,1.411-3.703,1.976-5.887,1.847c-5.697-0.334-6.896-2.199-3.977-7.18c4.34-7.401,2.658-15.089,1.627-22.748
			c-1.125-8.364-2.674-16.697,0.004-25.037c0.682-2.123-0.588-2.79-2.141-3.71c-5.045-2.984-10.527-4.714-16.205-5.79
			c-3.615-0.686-5.01-2.219-4.367-6.063c3.516-20.991,6.367-41.975,15.66-61.685c6.33-13.422,12.164-27.093,18.943-40.324
			c3.875-7.563,9.838-12.199,18.127-14.063c3.824-0.859,7.375-2.835,11.441-2.771c1.223,0.021,2.783-0.553,2.396-1.864
			c-2.424-8.182,5.357-10.89,8.6-15.909c1.773-2.747,5.004-3.402,8.797-1.675c3.674,1.673,6.916,4.037,10.598,5.641
			c1.643,0.715,2.465,2.16,3.082,4.117c1.523,4.833,0.965,9.754,1.34,14.613c0.303,3.911-5.318,8.979-9.27,8.233
			c-2.598-0.49-3.813,0.479-4.721,2.328c-0.93,1.893-2.689,3.268-0.775,6.197c6.271,9.595,10.086,20.123,9.305,31.873
			c-0.076,1.146-0.275,2.291-0.514,3.415c-1.773,8.339,0.691,11.727,9.395,12.729c4.496,0.519,7.387,2.895,8.176,7.326
			c0.75,4.196,1.4,8.449,1.588,12.699c1.203,27.308,2.223,54.622,3.443,81.929c0.141,3.147-0.502,6.584,1.783,9.382
			c0,1.326,0,2.65,0,3.978c-1.961,0.509-3.896,0.392-5.813-0.232c-1.324-3.076-0.023-6.21-0.189-9.321
			c-0.771-14.498-1.572-28.999-1.971-43.509c-0.129-4.736-1.91-6.104-6.326-5.599c-6.881,0.79-13.791,1.673-20.699,1.798
			c-5.158,0.094-7.047,2.573-7.563,7.11c-0.93,8.184-2.162,16.343-2.797,24.548c-0.672,8.697-2.855,17.279-2.07,26.091
			c-0.268,0.563-0.197,1.044,0.34,1.413c0.088,0.541,0.178,1.081,0.268,1.62c-0.617,2.682-2.285,3.785-4.994,3.337
			c-0.779-0.25-1.752-0.172-2.084-1.201c-0.014-0.394-0.025-0.786-0.039-1.178c0.016-0.591,0.029-1.181,0.045-1.771
			c1.209-3.363-0.809-3.042-2.992-2.678C956.092,246.741,950.176,247.867,944.124,247.745z M977.018,142.911
			c2.35-2.223,1.59-5.803,3.596-8.217c0.576-0.693,1.957-1.926-0.15-2.574c-1.395-0.431-2.561-0.312-2.689,1.649
			c-0.205,3.102-0.559,6.192-0.842,9.252l0.209,0.027L977.018,142.911z M972.358,172.806c0,1.941,0.002,3.882,0.004,5.822
			c-0.482,4.172-0.402,8.327,0.326,12.48c0.145-3.887,1.906-7.565,1.328-11.507c0.486-8.412,2.891-16.741,1.941-25.217
			c-0.406-0.036-0.811-0.073-1.217-0.108c-0.563,3.796-1.121,7.591-1.682,11.387C971.844,167.948,972.096,170.376,972.358,172.806z
			 M977.176,186.551c10.545-1.965,20.559-3.004,30.645-2.971c2.436,0.008,2.92-0.126,2.695-2.737
			c-0.549-6.408-0.627-12.861-0.785-19.298c-0.059-2.238-0.619-3.585-3.141-4.129c-7.402-1.604-14.748-3.48-22.109-5.275
			c-2.076-0.507-3.25-0.35-3.531,2.355C979.846,165.135,978.471,175.746,977.176,186.551z M967.387,184.538
			c-2.508,8.515-4.791,16.936-8.691,24.865c-2.199,4.47-2.65,9.825-3.715,14.817c-1.307,6.127,0.486,9.073,6.412,11.004
			c4.512,1.47,6.861-0.212,6.777-5.019c-0.029-1.794-0.928-3.658-0.641-5.357c1.988-11.782-0.432-23.735,1.51-35.513
			C969.297,187.778,969.487,185.973,967.387,184.538z M1007.784,136.296c-2.354,0.206-3.295,4.744-6.236,1.786
			c-1.719-1.729-3.115-1.606-5.223-1.171c-2.525,0.521-5.234,0.825-7.766-0.469c-3.246-1.657-5.088-0.066-5.828,2.952
			c-0.586,2.38-0.713,4.879-0.963,7.333c-0.166,1.616,1.016,1.689,2.232,1.938c7.582,1.546,15.146,3.181,22.717,4.784
			c1.059,0.224,2.814,0.903,2.381-1.022C1007.883,147.013,1010.393,141.271,1007.784,136.296z M941.153,238.263
			c0.293-0.649,0.588-1.232,0.824-1.839c4.564-11.639,0.963-23.545,1.152-35.327c0.016-1.041-0.572-1.377-1.523-1.447
			c-1.676-0.126-1.832,0.979-1.918,2.209c-0.51,7.274-3.098,14.164-4.072,21.316C934.858,228.753,932.907,235.271,941.153,238.263z
			 M978.356,124.818c0.549,1.541-0.963,3.579,1.469,4.358c1.75,0.561,3.777,1.435,5.295,0.576c2.031-1.149,0.391-3.267,0.186-4.904
			c-0.639-5.076-1.461-10.128-2.262-15.182c-0.137-0.867,0.275-2.239-1.135-2.33c-1.506-0.097-1.768,1.107-1.896,2.355
			C979.479,114.779,978.901,119.861,978.356,124.818z"/>
		<path fill="#FFFFFF" d="M751.442,2.716c2.373,3.256,3.363,7.179,7.895,9.2c8.174,3.646,10.656,13.021,6.525,20.578
			c-0.441,0.809-0.543,1.875-0.57,2.828c-0.232,8.097-3.385,11.282-11.715,11.384c1.916,5.021,4.088,9.678,7.441,13.817
			c2.799,3.453,5.461,7.06,7.783,10.845c3.787,6.173,3.248,10.574-1.984,15.455c-1.896,1.77-2.777,3.469-2.471,5.938
			c1.732,13.864-1.066,28.096,3.068,41.724c1.898,6.262-1.229,11.867-1.262,17.893c-0.068,11.549,2.014,23.176,0.084,34.6
			c-1.475,8.726-1.5,17.395-1.85,26.129c-0.143,3.581,1.223,7.313-2.25,10.962c-1.85,1.947,0.492,6.842,2.938,9.201
			c3.822,3.688,7.32,8.132,13.092,9.128c1.574,0.271,2.279,1.179,2.119,2.771c-0.188,1.886-1.563,2.46-3.104,2.597
			c-4.268,0.378-8.545,0.641-12.818,0.947c-6.697-3.133-14.047-0.614-20.896-2.414c-0.682-4.646,1.029-8.562,3.787-12.112
			c1.146-1.473,1.777-3.109,2.299-4.871c1.188-4.007,1.467-6.597-4.146-7.797c-6.123-1.311-12.18-4.29-16.779-8.646
			c-5.646-5.354-12.219-4.688-18.525-3.727c-3.527,0.539-5.76,4.768-7.766,7.929c-3.498,5.517-7.713,11.095-2.791,18.051
			c0.867,1.223,0.105,2.591-0.822,3.604c-1.205,1.312-2.396,0.482-3.535-0.206c-2.898-1.755-5.809-3.987-6.557-7.176
			c-1.463-6.202-4.838-11.239-7.951-16.584c-3.363-5.776-2.721-6.229,3.967-7.764c2.428-0.558,4.891-0.709,7.271-1.291
			c3.059-0.747,6.945-0.468,6.818-5.624c-0.035-1.369,2.123-2.804,3.297-4.188c5.896-6.962,11.154-14.31,14.406-22.945
			c1.645-4.367,4.518-8.062,7.127-11.861c2.463-3.585,3.83-7.293,2.805-11.8c-2.393,0.039-3.951,3.529-6.848,1.831
			c-3.863-2.266-4.859-5.335-2.055-9.075c3.18-4.237,3.465-8.686,2.764-13.609c-1.15-8.057-1.316-16.117,0.152-24.203
			c0.631-3.471,0.18-6.924-0.455-10.545c-0.83-4.717,0.523-9.819,0.949-14.756c0.443-5.104,1.383-10.223,1.234-15.31
			c-0.217-7.415,2.299-13.171,8.15-17.644c2.619-2.002,4.955-4.382,7.598-6.355c3.072-2.295,3.486-5.09,1.879-8.253
			c-3.201-6.292-3.623-12.26,1.543-17.787c0.664-0.711,1.375-1.296,0.572-2.489c-2.568-3.818,0.252-6.047,2.625-8.375
			C746.803,2.716,749.122,2.716,751.442,2.716z"/>
		<path fill="#FFFFFF" d="M622.073,242.315c-3.838-11.098-2.898-22.606-2.799-34.021c0.035-4.283,0.375-8.626,1.166-12.83
			c3.584-19.065,1.473-37.866-2.396-56.579c-0.799-3.856-2.332-7.563-3.582-11.32c-0.289-0.876-0.117-2.359-1.357-2.38
			c-5.592-0.089-3.662-3.306-2.979-6.394c3.738-16.814,3.646-33.739,1.986-50.832c-1.041-10.736,1.654-20.624,11.09-27.48
			c1.822-1.323,3.613-2.542,0.295-4.623c-2.811-1.76-2.605-5.519-4.016-8.272c-1.986-3.883-3.164-7.855,0.594-11.772
			c5.082-5.294,9.936-10.611,18.367-9.155c4.193,0.724,8.908,5.746,10.795,9.497c2.338,4.652,0.15,10.371,4.037,14.417
			c0.561,0.583,0.568,1.495,0.063,1.74c-3.078,1.487-2.023,4.559-2.576,6.879c-0.723,3.046-1.344,5.072-5.299,4.74
			c-2.52-0.212-4.027,0.931-1.814,4.187c4.09,6.021,8.014,12.09,13.039,17.43c3.041,3.229,4.326,7.546,4.205,11.905
			c-0.326,11.797,1.164,23.448,2.273,35.137c0.297,3.141,0.84,6.685-0.82,9.26c-3.584,5.559-3.416,10.753-0.682,16.486
			c1.713,3.589,0.361,7.025-2.275,9.787c-1.643,1.721-1.945,1.479-2.563-1.061c-0.607-2.491-3.387-0.761-4.846-3.705
			c0,10.896-0.309,20.33,0.08,29.736c0.434,10.496-1.619,20.759-2.211,31.15c-0.533,9.373,1.535,18.426,2.594,27.607
			c0.188,1.624,0.734,2.827,2.572,3.07c3.07,0.406,4.967,2.316,4.877,5.284c-0.107,3.564-3.545,1.949-5.422,2.812
			c-0.441,0.203-0.945,0.274-1.422,0.407c-5.395,0.908-10.762-1.157-16.025-0.484C631.905,243.596,627.004,243.885,622.073,242.315z
			"/>
		<path fill="#FFFFFF" d="M515.397,239.41c-0.277-14.733,6.189-27.681,11.793-40.584c4.502-10.367,6.111-21.18,8.439-31.927
			c1.463-6.747-2.51-12.456-4.721-18.438c-1.145-3.096-2.822-5.997-3.896-9.11c-1.902-5.51-2.957-10.965-1.086-16.953
			c2.584-8.27,0.826-12.955-6.412-17.298c-7.383-4.428-12.825-10.885-19.011-16.573c-1.995-1.835-2.334-3.691-0.447-6.02
			c7.181-8.86,14.175-17.871,21.355-26.731c3.053-3.767,7.512-5.257,11.988-6.556c2.641-0.766,3.346-1.962,1.068-4.012
			c-8.273-7.447-5.303-17.88,0.775-25.343c4.955-6.083,17.043-7.17,24.211-2.577c5.922,3.793,7,6.448,5.867,13.157
			c-0.51,3.019-1.826,6.114,0.029,9.196c0.539,0.894,0.498,2.377-0.486,2.576c-2.867,0.58-2.789,3.189-3.365,4.94
			c-1.172,3.56-2.773,5.626-6.93,3.772c1.441,7.014,3.523,13.017,7.719,18.352c2.838,3.607,2.008,7.628-1.902,10.354
			c-1.635,1.139-2.32,2.143-1.514,4c2.906,6.673,3.619,13.931,3.443,20.906c-0.219,8.767,1.471,17.095,3.213,25.464
			c2.975,14.279-0.988,27.505-5.445,40.72c-1.635,4.844-2.973,9.784-5.174,14.443c-0.75,1.587-1.207,3.551-1.07,5.284
			c1.029,12.854,0.758,25.799,2.742,38.601c0.334,2.151,0.93,2.756,2.805,3.049c2.863,0.446,6.602,0.324,6.215,4.661
			c-0.375,4.222-4.027,3.537-6.926,3.731c-0.66,0.044-1.316,0.127-1.977,0.191c-6.527,0.109-13.047-0.772-19.586-0.097
			c-1.617,0.167-3.672,0.284-4.463-1.4c-1.395-2.973-3.684-1.262-4.652-0.536C523.834,241.766,519.694,240.929,515.397,239.41z
			 M519.428,81.988c-2.426,0.98-4.385,2.19-6.248,3.889c4.869,3.705,7.414,9.018,12.051,12.86
			C523.317,93.211,521.401,87.685,519.428,81.988z"/>
		<path fill="#FFFFFF" d="M431.091,234.314c3.148-10.912,0.618-21.553-1.368-32.267c-1.126-6.076-0.956-12.146,1.501-18.046
			c2.394-5.743,4.194-18.393,3.784-25.854c-1.606,4.926-3.774,2.962-6.586,2.339c-7.063-1.563-6.105-6.84-6.063-11.498
			c0.088-9.91,2.463-19.485,7.354-28.022c4.986-8.702,4.703-17.155,1.589-26.141c-2.736-7.903-4.036-15.959-2.161-24.368
			c1.008-4.518,2.563-8.396,6.496-11.203c2.914-2.08,4.536-4.279,0.084-7.013c-3.481-2.139-4.558-5.851-3.863-9.996
			c0.573-3.427,1.5-6.671-0.494-10.267c-2.624-4.729,0.421-10.178,5.693-11.315c0.476-0.104,1.011,0.082,1.484-0.023
			c9.094-1.997,9.155-2.032,13.113,5.954c0.569,1.152,0.919,1.724,2.261,2.031c12.359,2.832,9.825,4.71,9.948,16.271
			c0.006,0.621-0.778,1.469-0.562,1.836c2.88,4.873-1.752,7.776-2.778,11.624c-1.672,6.264-5.536,3.886-9.779,2.626
			c1.425,5.792,2.729,10.857,6.059,15.271c3.643,4.826,7.525,9.765,1.688,15.718c-0.898,0.916-0.227,2.23-0.248,3.363
			c-0.221,11.142,2.042,21.568,8.703,30.779c1.576,2.179,2.193,4.813,2.727,7.398c0.329,1.6,0.996,4.091,0.231,4.796
			c-4.629,4.276-1.105,8.085,0.19,12.07c1.156,3.551,2.815,7.353-3.495,7.553c-1.848,0.061-1.271,1.539-1.077,2.629
			c0.547,3.086,0.866,6.241,1.75,9.229c1.194,4.038,1.094,7.798-1.033,11.457c-1.323,2.272-1.352,4.793-1.055,7.245
			c1.174,9.673,2.394,19.332,4.42,28.887c2.141,10.096,10.646,12.079,18.4,15.123c0.903,0.354,1.948,0.34,2.92,0.53
			c1.375,0.271,2.68,0.854,2.784,2.389c0.13,1.912-1.545,1.821-2.801,1.984c-3.276,0.427-6.562,0.785-9.842,1.173
			c-3.084-0.074-6.168-0.149-9.253-0.221c-4.304-0.097-8.728,1.349-12.856-1c0.144-0.289,0.14-0.575-0.009-0.861
			c-2.591-1.988-5.287-1.009-7.974-0.279c-0.6,0.103-1.199,0.206-1.8,0.308c-1.453-1.624-3.355-0.663-5.044-0.828
			c-4.347-0.426-8.705,1.265-13.062-0.004l-0.049-0.19C431.044,235.106,431.067,234.711,431.091,234.314z M449.678,176.852
			c-1.846,1.273-1.931,3.077-2.328,4.589c-2.653,10.135-2.647,20.627-3.889,30.949c-1.098,9.129,2.354,13.61,11.74,16.733
			c1.454,0.483,3.365,1.642,4.661,0.521c1.409-1.219,0.349-3.188-0.199-4.648c-2.722-7.262-5.507-14.5-8.449-21.674
			c-2.472-6.024-3.164-12.081-1.392-18.41C450.536,182.355,450.871,179.718,449.678,176.852z"/>
		<path fill="#FFFFFF" d="M384.82,53.7c2.078,0.671,1.141,1.946,0.12,2.314c-6.992,2.524-8.985,9.066-11.198,14.856
			c-2.121,5.552-4.651,10.684-8.615,15.571c3.319,0.927,6.177,0.036,8.413-1.18c6.175-3.356,12.526-5.969,15.057-14.238
			c2.325-7.593,4.506-15.001,4.911-22.916c0.042-0.824,0.077-1.79,1.191-1.752c0.927,0.032,1.414,0.827,1.533,1.686
			c0.156,1.134,0.176,2.286,0.285,3.881c3.358-1.955,4.117-5.485,6.009-8.377c3.525,5.576,1.512,9.913-1.854,14.083
			c-1.481,1.836-2.479,3.895-2.311,6.355c0.967,14.146-5.176,24.824-17.021,31.766c-8.347,4.89-7.704,11.609-8.547,19.919
			c-1.77,17.438,9.272,30.578,12.25,46.195c0.153,0.805,0.387,1.591,0.6,2.45c-0.522,0.21-0.949,0.477-1.406,0.551
			c-9.229,1.483-9.231,1.479-6.657,10.705c0.221,0.793,0.408,1.614,0.77,2.345c5.497,11.078,2.299,21.131-3.602,30.87
			c-0.428,0.707-0.947,1.362-1.333,2.091c-7.557,14.25-5.899,12.007,6.084,14.604c1.706,0.37,3.454,0.794,3.662,2.724
			c0.256,2.379-1.715,2.73-3.536,3.286c-3.55,1.08-7.229,0.637-10.811,1.208c-3.261,1.466-6.785,1.473-10.242,1.851
			c-0.902-0.748-1.804-1.496-2.705-2.243c-1.35-2.283-3.612-2.701-5.971-2.925c-1.867-2.552-4.146-4.688-6.638-6.613
			c-2.909-2.245-3.408-4.681-0.702-7.499c3.451-3.596,4.869-8.182,5.761-12.896c1.118-5.906,3.598-11.003,8.195-14.903
			c2.684-2.277,2.937-4.244-0.159-6.232c-3.396-2.184-5.946-5.248-8.603-8.196c-2.867-3.187-5.514-6.475-10.423-6.697
			c-3.171-0.145-4.979-3.038-7.314-4.817c-0.916-0.696-0.888-1.653-0.275-2.631c4.988-7.938,4.424-18.139,10.083-25.67
			c4.5-5.99,1.976-12.188,1.913-18.371c-0.024-2.287-1.546-1.904-3.064-2.061c-6.011-0.62-6.6-1.882-4.96-7.575
			c0.966-3.355,0.18-6.869-0.382-10.333c-1.92-11.829-1.013-23.218,7.207-32.722c6.653-7.692,16.067-5.922,20.085,3.431
			c2.149,5.005,3.083,5.125,6.363,0.771c2.905-3.857,4.215-7.81,0.779-12.114c-0.668-0.836-1.732-1.67-1.006-3.234
			c1.38-0.097,2.307,0.66,3.039,1.789c1.481,2.289,2.546,1.85,3.935-0.266c1.973-3.005,6.972-2.695,10.08,0.412
			c-0.128,0.373-0.463,0.979-0.349,1.078C383.97,54.483,384.469,54.261,384.82,53.7z M362.363,201.75
			c-8.077,9.187-9.479,15.776-4.944,21.441C360.804,216.343,361.149,208.933,362.363,201.75z"/>
		<path fill="#FFFFFF" d="M234.37,232.409c-4.073-4.291-8.203-8.529-12.202-12.891c-2.874-3.136-2.685-6.752,0.519-9.112
			c5.647-4.161,9.47-10.146,15.104-14.238c1.471-1.068,2.958-2.135,4.534-3.034c5.201-2.968,8.685-8.374,6.746-13.685
			c-4.269-11.692,1.203-22.031,3.221-32.876c0.343-1.846,2.483-4.077,0.791-5.384c-1.743-1.346-4.715-0.858-6.516,0.658
			c-5.206,4.389-11.643,4.697-17.826,5.856c-2.194,0.412-3.36-0.629-3.245-3.089c0.176-3.71,2.107-6.851,4.92-8.343
			c2.781-1.474,4.879-3.843,7.597-5.062c6.229-2.796,10.631-6.996,14.436-12.791c4.095-6.238,6.574-12.715,7.692-19.879
			c0.668-4.28,1.488-8.456,3.816-12.207c4.53-7.301,12.04-9.513,19.745-5.77c2.076,1.009,4.163,1.994,6.223,3.033
			c4.664,2.354,8.777,9.652,3.733,14.923c-1.544,1.614-2.842,3.29-1.253,6.073c1.097,1.922-1.455,3.588-2.377,5.366
			c-1.167,2.249-1.879,5.067-3.682,6.563c-2.046,1.698-4.227-2.159-7.073-1.156c3.873,3.81,5.519,8.473,5.771,13.669
			c0.204,4.199,2.333,5.047,6.272,4.522c5.605-0.746,10.44-3.235,15.43-5.507c3.747-1.706,6.135-0.107,5.145,3.818
			c-0.599,2.374,0.155,6.499-5.619,5.308c-2.739-0.565-6.432,3.407-9.667,5.364c-1.84,1.112-3.678,2.673-5.883,2.262
			c-5.086-0.952-6.16,2.065-6.483,6.018c-0.41,5.008-3.445,9.271-3.908,14.301c-0.29,3.144,0.134,5.763,2.358,8.175
			c2.689,2.918,5.142,6.058,7.619,9.163c2.958,3.71,4.906,7.8,4.725,12.723c-0.146,3.96,1.933,7.287,3.4,10.771
			c0.833,1.976,2.406,3.85,2.572,5.857c0.565,6.833,4.506,7.795,10.133,6.608c1.444-0.305,2.963-0.29,4.451-0.34
			c1.732-0.057,3.96-0.53,4.5,1.677c0.518,2.12-1.357,3.268-3.097,3.912c-4.484,1.667-9.043,3.149-12.531,6.665
			c-0.575,0.58-1.081,1.229-1.619,1.848c-4.672,3.817-5.762,3.732-8.834-0.696c-0.617-2.367-0.257-5.126-2.251-6.959
			c-3.044-2.798-4.533-6.375-5.893-10.152c-3.73-10.368-10.035-18.973-18.247-26.395c-6.338,10.081-13.291,18.412-24.821,22.824
			c-10.563,4.043-10.553,6.902-3.38,16.456c1.888,2.518,2.869,4.989-0.78,6.908C237.214,233.582,235.792,232.996,234.37,232.409z"/>
		<path fill="#FFFFFF" d="M121.577,140.521c4.775-0.937,9.377-1.931,10.355-8.002c0.249-1.542,1.546-3.156,3.712-3.021
			c-0.294,2.748,5.617,3.399,2.392,7.174c-1.423,1.664-0.885,2.298,1.136,3.31c1.979,0.99,5.064,2.829,0.624,5.533
			c-1.91,1.164-2.92,3.873-4.207,5.961c-0.691,1.123-1.125,2.238-2.66,2.632c-4.791,1.229-6.163,4.38-5.82,9.252
			c0.523,7.438-0.056,14.873-3.128,21.868c-0.396,0.903-0.814,2.522-1.295,2.55c-6.101,0.355-2.922,4.818-2.382,6.713
			c2.513,8.817,0.352,18.152,3.332,26.875c0.374,1.093-0.307,2.56-0.546,3.844c-1.062,5.699,0.654,8.864,6.177,11.518
			c2.495,1.198,4.752,2.526,0.808,4.841c-6.417-0.697-12.982,1.003-19.307-1.188c-1.357-8.365-4.866-16.223-5.423-25.209
			c-2.322,1.439-2.97,3.316-3.517,5.083c-0.953,3.079-2.47,5.921-4.67,8.08c-2.743,2.69-3.786,4.466,0.796,5.907
			c1.113,0.352,1.34,1.385,1.231,2.438c-0.173,1.671-1.517,1.572-2.623,1.51c-5.13-0.293-9.971-1.968-14.861-3.345
			c-1.89-0.531-1.815-2.415-1.362-3.757c1.888-5.594,2.891-11.93,6.263-16.478c5.369-7.236,5.782-14.607,4.677-22.83
			c-0.502-3.736,0.439-7.481,1.372-11.21c0.92-3.684,2.807-7.365,1.265-11.43c-0.382-1.006-0.491-2.641,0.07-3.396
			c4.535-6.119-0.141-9.771-3.337-14.052c-4.232-5.669-3.034-11.351,3.321-14.963c2.988-1.699,2.852-2.605,0.755-4.971
			c-1.7-1.917-7.01-4.771,0.173-6.844c0.258-0.075,0.207-1.221,0.3-1.867c1.262-8.785,6.309-12.454,14.955-10.876
			c4.783,0.873,9.459,1.953,12.076,6.704c1.283,2.328,1.085,4.776,1.248,7.374c0.309,4.948-1.922,9.083-2.448,13.658
			c-0.224,0.16-0.448,0.321-0.672,0.482C120.764,140.433,121.17,140.477,121.577,140.521z"/>
		<path fill="#FFFFFF" d="M170.903,236.318c-3.2-5.153-2.829-11.142-2.4-16.563c0.481-6.087-1.456-12.55,2.124-18.45
			c0.746-1.229-0.466-3.817-1.083-5.677c-3.738-11.277-5.746-22.547-3.043-34.539c0.915-4.06,0.583-8.463,2.453-12.425
			c0.789-1.671,0.077-3.204-0.537-4.744c-2.806-7.027-2.469-13.877,1.323-20.459c0.611-1.062,0.959-1.579,0.079-2.899
			c-3.617-5.426-2.615-20.927,1.405-25.722c6.771-8.076,20.89-7.33,26.537,1.602c1.362,2.155,3.159,4.976-0.14,7.354
			c-0.966,0.696-1.167,1.624-0.362,2.504c2.673,2.924,0.953,6.045,0.592,9.158c-0.454,3.91-3.272,3.438-5.908,3.526
			c-1.087,0.037-2.47-0.385-3.005,1.054c-0.424,1.141-0.353,2.258,0.916,2.986c8.026,4.604,7.717,12.856,8.699,20.414
			c0.749,5.769,0.489,5.785,6.363,4.479c1.125-0.249,2.302-0.501,3.436-0.432c2.238,0.137,5.48-0.077,4.964,3.076
			c-0.2,1.225,0.084,5.732-4.212,4.237c0.368,1.487,2.5,0.715,2.174,2.637c-0.294,0.103-0.719,0.41-1.081,0.35
			c-13.704-2.316-11.201-3.399-12.193,8.89c-0.77,9.537-3.119,18.944-2.435,28.611c0.089,1.262-0.092,2.918-0.842,3.8
			c-4.349,5.105-4.117,11.152-4.275,17.284c-0.062,2.405,0.25,3.554,2.637,4.119c2.071,0.492,4.058,1.356,6.064,2.104
			c1.19,0.443,1.898,1.318,1.851,2.637c-0.054,1.506-1.339,1.905-2.388,2.023c-2.616,0.295-5.264,0.315-7.899,0.448
			c-2.905-2.223-7.122,0.775-9.85-2.631c1.224,6.125,7.139,6.354,10.886,9.182l0.031,0.038c0.438,3.563-1.947,3.83-4.564,4.063
			C181.62,238.858,176.307,237.267,170.903,236.318z"/>
		<path fill="#FFFFFF" d="M6.769,234.295c-4.325-2.107-4.676-5.131-2.708-9.3c3.073-6.51,4.723-13.913,12.036-17.444
			c1.448-0.7,0.784-1.439,0.3-2.315c-1.949-3.522-2.522-7.476-3.492-11.304c-0.458-1.809-0.796-3.898,0.313-5.305
			c3.862-4.893,4.104-11.106,6.202-16.611c1.954-5.13,1.732-11.205,5.988-15.343c4.286-4.167,5.333-8.682,4.08-14.509
			c-0.998-4.641,1.602-8.358,5.959-10.32c5.753-2.591,11.07-0.958,15.725,2.672c3.532,2.754,4.819,6.743,3.628,11.114
			c-1.224,4.493-0.958,9.717-6.267,12.458c7.17,4.098,13.75,7.793,20.253,11.616c1.735,1.02,2.498,2.721,1.37,4.662
			c-0.911,1.565-1.854,3.258-4.249,1.966c-3.613-1.945-7.76-2.633-11.42-4.161c-4.553-1.9-4.1,1.969-5.256,3.407
			c-2.365,2.942,1.526,2.281,2.485,3.127c1.546,1.358,3.661,1.127,5.666,0.501c2.158-0.675,3.857,0.143,3.78,2.455
			c-0.067,2.034,0.536,4.899-3.038,5.122c-2.278,0.141-4.656,1.058-6.793,0.635c-6.102-1.207-8.749,3.365-12.088,6.719
			c-1.104,1.106-0.484,2.88-0.016,4.286c2.109,6.325,1.407,12.207-1.96,18.033c-2.091,3.62-0.067,12.166,3.064,15.093
			c1.071,1.001,1.673,2.082,1.212,3.495c-0.789,2.423-2.979,2.246-4.914,2.501c-3.082,0.726-5.392-1.354-8.038-2.211
			c-1.142-2.229-3.687-1.387-5.397-2.441c-0.913-0.562-1.629-2.344-3.201-0.948c-1.579,1.401-0.854,2.845-0.141,4.305
			c-0.292,2.76-2.359,2.709-4.362,2.743C11.71,239.054,9.235,236.682,6.769,234.295z"/>
		<path fill="#FFFFFF" d="M890.663,251.284c-1.361,0.044-2.723,0.088-4.082,0.132c-2.266-2.626-0.043-5.391-0.25-8.076
			c-1.174-15.17-2.389-30.337-3.52-45.511c-0.152-2.043-0.631-2.615-2.678-1.672c-4.086,1.885-8.564,2.476-12.938,3.248
			c-11.246,1.985-16.338,8.265-15.527,19.537c0.107,1.486,0.113,2.981,0.25,4.466c0.887,9.584,5.732,15.888,14.125,18.368
			c2.441,0.724,4.906,1.369,4.633,4.736c-0.299,3.69-3.285,2.362-5.299,2.84c-0.479,0.112-0.982,0.126-1.477,0.188
			c-0.865-0.48-1.699-0.544-2.473,0.191c-0.422,0.03-0.846,0.063-1.268,0.094c-3.256-2.121-6.264-2.916-10.268-0.926
			c-3.26,1.622-7.342,1.466-10.805-0.773c0.053-2.579-0.635-4.313-3.164-5.968c-6.02-3.938-10.396-9.89-16.305-14.137
			c-3.15-2.265-2.219-6.708,2.217-8.048c7.76-2.343,11.07-8.149,14.236-14.601c2.449-4.99,1.729-6.561-3.695-6.711
			c-2.139-0.059-4.43-0.283-6.396,0.352c-4.59,1.484-6.137,0.416-5.945-4.634c0.684-18.218-0.566-36.372-2.5-54.489
			c-0.277-2.593,0.559-5.305,0.283-7.897c-1.102-10.368,2.604-20.015,3.83-29.962c0.764-6.205,1.445-12.848,1.402-19.317
			c-0.088-13.603,6.729-22.652,18.479-28.58c1.264-0.638,2.943-0.827,3.475-2.525c-0.107-0.289-0.16-0.773-0.336-0.823
			c-2.615-0.747-6.232-0.598-6.482-4.167c-0.23-3.347,3.018-4.4,5.619-5.436c2.77-1.101,4.102-2.382,3.41-5.912
			c-1.186-6.063,0.514-8.302,6.227-10.544c5.746-2.254,11.582-3.789,17.859-3.216c2.768,0.252,4.018,1.307,4.344,4.227
			c0.906,8.204,1.043,8.17,9.133,9.772c1.406,0.279,3.48,0.479,3.564,2.012c0.1,1.807-2.092,1.537-3.398,1.985
			c-3.688,1.267-8.922,8.137-9.16,12.01c-0.18,2.889-5.816,9.79-9.102,10.701c2.375,2.509,2.422,5.524,2.258,8.592
			c-0.336,6.28-0.275,12.42,1.801,18.583c1.793,5.318-0.721,10.787-1.248,16.183c-0.641,6.531,4.574,16.914,10.479,19.506
			c9.631,4.229,11.773,12.871,5.145,21.036c-1.789,2.205-2.432,4.676-2.229,7.392c2.242,29.517,4.568,59.026,6.689,88.553
			C889.797,245.174,893.659,247.847,890.663,251.284z M880.159,171.423c0.789-3.95,0.439-7.821,0.008-11.697
			c-0.74-6.643-1.375-13.255,4.541-18.286c0.57-0.484,1.564-1.3,0.381-2.385c-2.775-2.544-10.422-2.713-13.064,0.319
			c-0.703-4.305,2.145-9.287-3.314-11.774c0.158,2.406-2.586,4.034-1.633,7.091C870.944,147.081,875.051,159.382,880.159,171.423z
			 M840.481,234.594c0.77-3.945,0.68-7.752-0.857-11.63C834.528,227.3,839.569,230.871,840.481,234.594z"/>
		<path fill="#FFFFFF" d="M977.018,142.911l0.121,0.14c0,0-0.209-0.027-0.213-0.01S977.018,142.911,977.018,142.911z"/>
		<path fill="#FFFFFF" d="M384.82,53.7c-0.351,0.562-0.85,0.782-1.362,0.327c-0.114-0.101,0.221-0.707,0.349-1.078
			C384.145,53.199,384.482,53.449,384.82,53.7z"/>
		<path fill="#FFFFFF" d="M121.577,140.521c-0.407-0.043-0.813-0.087-1.22-0.131c0.224-0.161,0.449-0.322,0.672-0.482
			C121.239,140.087,121.422,140.292,121.577,140.521z"/>
	</g>
</g>
</svg>
