<svg version="1.1" xmlns="http://www.w3.org/2000/svg" xmlns:xlink="http://www.w3.org/1999/xlink" width="410.179px" height="657.098px" viewBox="0 0 410.179 657.098" xml:space="preserve">
	<g>
		<path fill-rule="evenodd" clip-rule="evenodd" fill="#5C6A6B" d="M70.452,561.342c15.214-15.793,11.348-14.269,34.031-14.262 c28.647,0.008,57.296-0.073,85.943,0.09c3.845,0.022,4.816-1.036,4.813-4.843c-0.103-109.736-0.104-219.473,0.004-329.209 c0.004-3.844-1.016-4.823-4.819-4.797c-24.438,0.173-48.879,0.214-73.318,0.044c-19.008-0.132-32.335-13.655-31.455-31.755 c0.303-6.242,2.175-12.064,6.574-16.817c27.037-29.218,54.058-58.451,81.096-87.669c15.938-17.222,31.904-34.42,47.84-51.643 c5.313-5.742,11.475-10.047,19.453-10.854c10.75-1.087,19.881,2.038,27.411,10.208c29.063,31.536,58.294,62.915,87.464,94.353 c13.76,14.829,27.798,29.412,41.207,44.552c15.11,17.062,6.522,43.761-15.323,48.784c-3.491,0.802-7.052,0.88-10.615,0.88 c-23.469-0.002-46.939,0.128-70.406-0.113c-4.552-0.047-5.901,0.891-5.896,5.724c0.151,133.044-1.523,266.098,0.206,399.13 c0.366,28.168-11.775,32.276-16.86,32.347c-83.8,2.911-166.881,2.419-251.436,1.371c-6.337,0.072-11.719-1.118-14.603-2.878 c-1.639-0.911-4.075-3.907-4.919-6.447c-2.358-7.099-0.268-12.935,4.939-18.035c9.48-9.288,18.576-18.99,28.381-27.916"/>
	</g>
</svg>
