<svg version="1.1" xmlns="http://www.w3.org/2000/svg" xmlns:xlink="http://www.w3.org/1999/xlink" viewBox="90 0.013 612 611.975" xml:space="preserve">
	<g>
		<path fill="#FFFFFF" d="M448.887,306.007L684.042,70.85c14.61-14.597,14.61-38.282,0-52.88c-14.609-14.61-38.27-14.61-52.88,0 L396.007,253.126L160.838,17.97c-14.61-14.61-38.27-14.61-52.88,0c-14.609,14.598-14.609,38.283,0,52.88l235.168,235.157 L107.958,541.162c-14.609,14.598-14.609,38.282,0,52.88c7.305,7.293,16.879,10.945,26.44,10.945c9.562,0,19.136-3.652,26.44-10.957 l235.169-235.157L631.162,594.03c7.305,7.305,16.879,10.957,26.439,10.957c9.562,0,19.135-3.652,26.44-10.957 c14.61-14.598,14.61-38.283,0-52.881L448.887,306.007z"/>
	</g>
</svg>
