<?xml version="1.0" encoding="utf-8"?>
<!-- Generator: Adobe Illustrator 16.0.0, SVG Export Plug-In . SVG Version: 6.00 Build 0)  -->
<!DOCTYPE svg PUBLIC "-//W3C//DTD SVG 1.1//EN" "http://www.w3.org/Graphics/SVG/1.1/DTD/svg11.dtd">
<svg version="1.1" id="Layer_1" xmlns="http://www.w3.org/2000/svg" xmlns:xlink="http://www.w3.org/1999/xlink" x="0px" y="0px"
	 width="720.077px" height="598.092px" viewBox="35.961 115.374 720.077 598.092"
	 enable-background="new 35.961 115.374 720.077 598.092" xml:space="preserve">
<g>
	<path fill="#519548" d="M84.053,469.542l-1.098-0.24h470.362l-147.864,148.19c-7.241,7.235-11.213,17.035-11.213,27.322
		c0,10.286,3.972,20.02,11.213,27.271l23.007,23.019c7.235,7.234,16.876,11.235,27.157,11.235c10.286,0,19.933-3.972,27.168-11.206
		l253.467-253.445c7.265-7.264,11.235-16.939,11.207-27.231c0.028-10.349-3.943-20.029-11.207-27.282L482.784,133.707
		c-7.235-7.229-16.876-11.207-27.168-11.207c-10.28,0-19.922,3.984-27.156,11.207l-23.008,23.02
		c-7.24,7.223-11.213,16.869-11.213,27.156c0,10.281,3.973,19.418,11.213,26.648L554.985,359.55H83.527
		c-21.185,0-38.986,18.259-38.986,39.432v32.558C44.541,452.712,62.868,469.542,84.053,469.542z"/>
</g>
</svg>
